<svg t="1747213953443" class="icon" viewBox="0 0 1024 1024" version="1.1" xmlns="http://www.w3.org/2000/svg" p-id="1523" width="16" height="16"><path d="M851.4776 101.12H170.72239999A80.1984 80.1984 0 0 0 90.61999999 181.2224v498.3552a80.2176 80.2176 0 0 0 80.1024 80.1216h680.75520001c44.16 0 80.1024-35.9424 80.10239999-80.1216V181.2224c0-44.16-35.9424-80.1024-80.10239999-80.1024zM877.81999999 679.5776c0 14.5344-11.8272 26.3424-26.34239999 26.3424H170.72239999A26.3808 26.3808 0 0 1 144.38 679.5776V181.2224c0-14.5152 11.8272-26.3424 26.34239999-26.3424h680.75520001c14.5152 0 26.3424 11.8272 26.34239999 26.3424v498.3552zM731.9 840.32h-441.60000001a26.88 26.88 0 0 0 0 53.76h441.60000001a26.88 26.88 0 0 0 0-53.76z" p-id="1524" fill="#6C707E"></path><path d="M242.3576 554.72h46.90559999v-95.1168h83.3664v-39.2832h-83.3664v-61.1904h97.632v-38.9952H242.3576zM408.51439999 359.1296h65.9328v195.5904h46.92480001V359.1296h66.56639999v-38.9952h-179.424zM703.06159999 320.1344h-77.03039999v234.5664h46.90559999v-83.3664h31.392c50.4 0 90.6624-24.0768 90.6624-77.664 0-55.4688-39.936-73.536-91.9296-73.536z m-1.9008 114.1248h-28.224v-77.0304h26.6304c32.3328 0 49.44 9.1968 49.44000001 36.4416 0.0192 26.9568-15.5136 40.5888-47.84640001 40.5888z" p-id="1525" fill="#6C707E"></path></svg>