<svg t="1750821006766" class="icon" viewBox="0 0 1024 1024" version="1.1" xmlns="http://www.w3.org/2000/svg" p-id="2658" width="16" height="16"><path d="M884.19280888 391.90498701a490.95860362 490.95860362 0 0 0-19.64434305-100.77097764l11.69663115 3.89887735c-31.34097422-71.52939932-79.17719677-143.808583-134.96113037-175.14955722-7.64779747-4.49870449-30.89110342 4.34874727-23.39326319-10.64693321s-32.99049844-7.19792666-49.93561846-4.19879092c-23.09334873 3.74892011-26.39239893-25.64261455-65.98099775-31.49093056-22.49352158-3.14909297-28.3418376 16.19533565-39.28868438 11.69663115C541.99136269 76.99568135 544.39067129 60.95030205 512 76.99568135c-16.19533565 7.94771104 10.19706328-22.94339238-43.18756172-4.04883369l-4.49870449-10.94684766c-95.37253242 36.58946221-122.21480215 67.03069482-149.05707188 69.72991787-6.14822959 0-29.99136269 28.7917084-47.08643906 46.63656827-14.99568135 14.99568135-23.09334873 32.09075771-43.18756172 34.78998076l-14.99568134 62.08212041a119.9654499 119.9654499 0 0 0-43.03760538 85.32542636 58.63311387 58.63311387 0 0 1 3.89887734-46.48661191c-14.99568135 5.99827237-40.33838232 14.99568135-26.09248534 85.17546914 11.24676123 55.4840209-4.64866084 118.7657956 8.84745175 179.94817529 4.19879092 18.44468789 0 35.23985068 5.39844522 44.98704404C253.62441231 831.4284043 342.54880156 968.78884502 574.23207676 961.74087471l3.89887734-7.79775469c-24.74287383-5.99827237-48.43605059-14.99568135-98.07175547-26.99222608-16.34529287-3.89887734-20.24416934-29.99136269-35.38980703-38.83881445-8.24762461-4.79861807-24.89283105-3.59896377-32.69058574-8.69749453s3.74892011-19.04451503-17.54494717-12.59637275c-7.49784023 2.24935224-12.14650195-9.59723614-17.69490351-14.99568135s0-20.84399737-20.54408291-21.74373721-16.19533565-26.09248535-17.39499083-39.28868526c-10.64693408 1.34961152-1.04969795-1.34961152-11.69663115 3.89887735a55.93389082 55.93389082 0 0 1-20.99395371-27.89196767c-8.99740898-43.03760537-9.29732256-18.89455869-13.1961999-28.49179395a283.26841875 283.26841875 0 0 0-16.94511915-37.039333l23.54321954 7.79775468h3.89887647l3.89887734-11.69663116-23.39326231-7.64779745h27.442096c-6.74805674 12.2964583 1.79948145 4.64866084-11.8465875 7.7977538v11.69663115l19.64434218-7.7977538v-11.69663115c-18.14477432-8.99740898-25.19274463-11.69663115-43.18756172-19.3444295l7.94771104 7.79775469v3.89887734h-43.1875626c-19.34442862-13.04624268-12.2964583-27.8919668-15.74546484-46.63656914 14.99568135 0 8.09766826 5.84831602 14.99568135-11.5466748l-14.99568135 7.79775469 11.69663116-29.84140547-11.69663116 11.54667393c-25.64261455-34.04019638-14.24589698-85.92525352-10.49697685-133.61151973a158.80426435 158.80426435 0 0 1 33.14045566-89.97408721c7.79775381-8.84745176 4.49870449-22.19360801 4.79861806-32.69058486l27.44209601-23.24330596h15.74546571c6.74805674 14.99568135 4.19879092 4.79861807 0 19.34442862l7.79775382 3.89887734c6.29818594-7.64779747 5.39844521-5.24848886 7.79775469-19.3444295-8.84745176-9.29732256-6.14822959-8.69749541-23.3932632-11.69663115a104.96976856 104.96976856 0 0 1 98.07175547-50.38548838l3.89887735-11.69663203-15.74546572 7.94771104-3.89887647-11.54667393A96.27227403 96.27227403 0 0 1 437.02159414 236.54973008c5.54840244 0 6.14822959-14.99568135 11.24676036-17.09507725 142.00910156-53.23466865 271.87170117 8.24762461 326.15606688 129.56268603a284.91794385 284.91794385 0 0 1 7.19792755 29.9913627c14.99568135 50.08557568-6.29818594 106.76925088 8.54753818 136.76061269-6.89801308 31.64088779-32.24071494 12.14650195-35.38980791 27.14218331-7.49784023 36.28954864-13.04624268 52.48488427-35.83967784 69.28004707A172.60029141 172.60029141 0 0 1 691.94817529 631.83588769a74.07866513 74.07866513 0 0 0 19.64434219-34.93993798c-93.42309375 98.07175547-230.78353447 56.2338044-254.92658115-93.12318018A88.92439013 88.92439013 0 0 1 487.55703974 421.89634971c81.7264626-76.92784453 131.96199463-46.03674112 180.84791602-17.9948171l-7.79775469-26.99222607c-28.94166474-21.44382451-14.99568135-17.39498994-7.94771104-50.38548925v-3.89887735l-15.74546484-11.54667481c2.24935224 8.84745176 0.89974073 4.64866084 7.94771104 14.99568135-3.89887734 14.09594062 0 7.94771104-7.79775469 14.99568135-13.1961999 8.54753818-20.84399737 6.44814316-39.28868526 3.89887735l3.89887735-11.69663116-11.69663115-11.69663203c0 10.34701963-3.59896377 2.39930859 0 14.99568135-110.81808457 8.69749541-191.64480644 70.32974502-157.00478291 228.68413945a193.89415869 193.89415869 0 0 0 7.79775468 38.83881445l-7.79775468 7.64779747-3.89887647-23.24330596h-11.84658838l-3.89887734 11.69663115c-11.09680401-22.64347881-0.74978437 9.44727891 35.38980791 46.48661192a131.21221114 131.21221114 0 0 0 11.24676123 11.09680401c41.98790742 29.99136269 99.57132334 71.52939932 176.94903867 43.18756171h7.94771104v-3.89887647l-89.97408808-11.69663203-3.89887735-7.64779746c93.87296455 21.74373808 155.50521416-7.49784023 207.99009931-42.58773457 11.5466748-14.99568135 10.04710605-21.14391094 19.49438585-7.94771104 16.94512002-14.99568135 3.44900654-23.54321953 11.8465875-38.68885722 5.69835879-10.34701963 28.64175117-14.99568135 39.28868525-31.04106065l35.23985069-119.9654499h-14.99568135c2.69922305-12.59637188 19.79429941-29.99136269-3.89887647-42.58773457-2.24935224-1.34961152 7.94771104-1.1996543 7.79775381-3.74892011a127.91316094 127.91316094 0 0 0-19.49438584-58.33320029c29.09162197 19.04451503 31.94080137 59.98272539 47.08643907 92.97322382v7.79775381h3.89887734V391.90498701zM460.41485645 585.34927578L452.01727461 562.10596982l54.88419375 50.38548838z m-269.92226251-337.25287177l-20.39412655-3.89887647v34.93993711c14.69576777-9.29732256 16.64520645-9.14736533 19.64434306-31.04106064z m505.35445782 155.05534424a50.5354456 50.5354456 0 0 0-14.99568135 38.83881445l11.84658838 7.64779746a33.29041201 33.29041201 0 0 0 3.89887735-46.48661191z m129.41272969 147.40754677c23.09334873-10.19706328 47.98617979-50.98531641 31.49093056-85.32542637l-31.49093056 85.17546914z m-152.95594922-69.8798751c-13.79602705 10.34701963-17.39498994 11.69663115-19.64434219 34.93993799l11.69663115 7.79775381 15.74546573-7.79775381a52.93475508 52.93475508 0 0 0 3.89887734-42.58773545c-7.34788388 11.84658838-2.24935224 18.14477432-11.69663203 7.64779746z m-58.93302744 69.8798751c13.94598339-9.59723614 10.49697685-13.04624268 15.74546572-19.49438585V526.86611826a256.7260626 256.7260626 0 0 1-54.88419375 0c-11.5466748-12.2964583-11.69663115-25.79257177-27.442096-34.78997988 14.99568135 30.89110342 2.8491794 33.59032558 27.442096 54.28436572a139.00996494 139.00996494 0 0 0 35.23985157 3.89887734c1.34961152 0-5.99827237-0.89974073 3.89887646 0z m-368.74380146-31.04106065h-11.84658839l-7.7977538 7.64779746c8.39758183 8.99740898 4.79861807 6.29818594 11.69663115-3.89887646l11.84658838 19.49438496 3.89887734-14.99568046-7.79775469-7.64779747z m14.99568134 50.38548926l3.89887734-7.79775381c-8.84745176-7.64779747 0-3.14909297-11.69663115 0l-11.69663203-14.99568135 3.89887734 14.99568135v7.79775381h14.99568135z" fill="#CE0C48" p-id="2659"></path></svg>