<svg t="1750820989771" class="icon" viewBox="0 0 1024 1024" version="1.1" xmlns="http://www.w3.org/2000/svg" p-id="2335" width="16" height="16"><path d="M962 512.0140625C962 263.48046875 760.52304688 62 511.99296875 62 263.571875 62 62.17578125 263.31171875 62 511.69765625v348.23671875c0.13359375 56.39765625 45.87539063 102.05507812 102.30820312 102.05507812h347.86757813C760.625 961.89101563 962 760.48085937 962 512.0140625" fill="#294172" p-id="2336"></path><path d="M644.1171875 168.54804688c-116.39882812 0-211.09570313 94.69335938-211.09570313 211.09570312v112.04296875H321.44257813c-116.39882812 0-211.09570313 94.70039062-211.09570313 211.09921875 0 116.3953125 94.696875 211.09570313 211.09570313 211.09570313s211.09570313-94.70039062 211.09570312-211.09570313v-112.04648438h111.57890625c116.39882812 0 211.09921875-94.696875 211.09921875-211.09570312 0-116.40234375-94.70039062-211.09570313-211.09921875-211.09570313z m-210.31523438 534.23789062c0 61.95234375-50.40351563 112.35585937-112.359375 112.35585937s-112.359375-50.40351563-112.359375-112.35585937c0-61.95585938 50.40351563-112.359375 112.359375-112.359375h111.57890625v0.31289062h0.78046875v112.04648438z m210.31523438-210.7828125h-111.57890625v-0.31640625h-0.77695313v-112.04296875c0-61.95585938 50.40351563-112.359375 112.35585938-112.359375s112.359375 50.40351563 112.359375 112.359375-50.40703125 112.359375-112.359375 112.359375z" fill="#3C6EB4" p-id="2337"></path><path d="M690.77304688 174.95c-16.3828125-4.28203125-28.96171875-6.27890625-46.65585938-6.27890625-116.63789062 0-211.20117188 94.56679688-211.20117188 211.19765625v111.94453125h-88.45312499c-27.58007813 0-49.86914063 21.67382813-49.8515625 49.2046875 0 27.35859375 22.04296875 49.12382813 49.33125 49.12382813l73.23398437 0.0140625c8.69414062 0 15.74648438 7.03125 15.74648438 15.71132812v96.86601563c-0.10898438 61.49179688-49.98867188 111.30117187-111.48046876 111.30117187-20.83007813 0-25.9875-2.728125-40.20820312-2.728125-29.87226563 0-49.85859375 20.025-49.85859375 47.559375 0.00703125 22.77773438 19.52578125 42.35976563 43.4109375 48.61054688 16.3828125 4.28203125 28.96171875 6.28242187 46.65585937 6.28242187 116.63789062 0 211.20117188-94.56679688 211.20117188-211.20117187v-111.94101563h88.453125c27.58007813 0 49.86914063-21.67382813 49.8515625-49.2046875 0-27.36210938-22.04296875-49.12382813-49.33125-49.12382812l-73.23398438-0.0140625a15.73242188 15.73242188 0 0 1-15.74648437-15.71484375V379.69296875c0.10898438-61.49179688 49.98867188-111.30117187 111.48046875-111.30117187 20.83007813 0 25.9875 2.73164062 40.20820312 2.73164062 29.87226563 0 49.85859375-20.02851563 49.85859375-47.559375-0.00703125-22.78125-19.52578125-42.36328125-43.4109375-48.6140625" fill="#FFFFFF" p-id="2338"></path></svg>