<svg t="1747210577463" class="icon" viewBox="0 0 1024 1024" version="1.1" xmlns="http://www.w3.org/2000/svg" p-id="1516"
     width="16" height="16">
    <path d="M411.4 627.4l107.4-67.1 0.3-75.8C439 511.3 411.4 627.4 411.4 627.4z" fill="#CED0D6" p-id="1517"></path>
    <path d="M95.2 145.5l-2.7 730c-0.1 29.3 23.6 53.2 52.9 53.3l730 2.7c29.3 0.1 53.2-23.6 53.3-52.9l2.7-730c0.1-29.3-23.6-53.2-52.9-53.3l-730-2.7c-29.3-0.2-53.2 23.5-53.3 52.9zM540 264.6c1.1 29 97.4 112.9 122.8 134.5 4.5 3.9 8.4 8.4 11.3 13.6 10.2 17.9 26 58.9 5.5 87.8-26.6 37.5-49.6 58.3-101.9 92l-2.3 240.1-49.9-50.3 0.6-167-198 106.4S342.9 485.2 563 422l-0.4 105.8s18.2 0.2 58.6-45.7c36.7-41.6-32.9-84.8-60.6-108.6-27.7-23.8-72.8-74.3-78.6-115.5-5.1-35.8 30.4-78.3 81.9-62.8 51.4 15.5 83.2 78.2 83.2 78.2l48.3 114.3-131.6-142.5s-25-14-23.8 19.4z"
          fill="#CED0D6" p-id="1518"></path>
</svg>