<svg t="1747209685965" class="icon" viewBox="0 0 1024 1024" version="1.1" xmlns="http://www.w3.org/2000/svg" p-id="1079"
     width="16" height="16">
    <path d="M931.2965 177.38749971c21.30000029 0 34.61249971 17.36250029 29.7 38.8125l-137.21249971 599.2875c-4.87500029 21.44999971-26.13750029 38.8125-47.43750058 38.8125H92.7215c-21.30000029 0-34.61249971-17.36250029-29.7-38.8125L200.23399971 216.19999971c4.87500029-21.44999971 26.13750029-38.8125 47.43750058-38.8125h683.62499971z m-314.06249971 350.4375c9.41249971-14.77500029 8.51249971-33.93749971-3.375-46.61249942L404.08399971 258.04999971c-14.24999971-15.1875-38.88749971-15.26249971-54.97499971-0.14999942-16.0875 15.11250029-17.55 39.63750029-3.30000029 54.7875l174.825 185.99999942v4.12500058l-278.24999942 201.4875c-16.875 12.2625-19.98749971 36.63749971-7.01250029 54.48749942 12.97500029 17.84999971 37.16250029 22.3875 54 10.125l308.5875-221.58749971c10.50000029-7.38749971 16.425-13.725 19.27500029-19.50000029z m-104.85 164.96250029a34.80000029 34.80000029 0 0 0-35.02500029 34.61249971c0 19.125 15.67500029 34.61249971 35.02500029 34.61250058h166.23749971a34.80000029 34.80000029 0 0 0 35.02500029-34.61250058 34.80000029 34.80000029 0 0 0-35.02500029-34.61249971H512.38400029z"
          p-id="1080" fill="#6C707E"></path>
</svg>