<svg t="1747210120200" class="icon" viewBox="0 0 1024 1024" version="1.1" xmlns="http://www.w3.org/2000/svg" p-id="1169" width="16" height="16"><path d="M806.11718723 531.44140652l-78.2578125 78.50390571L410.22265625 291.21874973l82.08984402-78.53906223a231.46874973 231.46874973 0 0 1 162.49218723-68.66015625 206.54296902 206.54296902 0 0 1 131.02734402 44.296875L856.98828125 117.125a35.15625027 35.15625027 0 0 1 49.67578125-0.03515652h0.03515652a35.15625027 35.15625027 0 0 1 0 49.74609429l-74.35546875 74.35546875a225.21093777 225.21093777 0 0 1-26.22656304 290.25z m-191.63671875 27.07031223a24.57421875 24.57421875 0 0 1-1.51171821 33.08203098l-57.72656277 57.76171929 63.98437473 63.73828071-83.42578125 83.46093777a230.62499973 230.62499973 0 0 1-161.71874946 68.66015625 204.92578125 204.92578125 0 0 1-136.75781304-49.21874973l-95.83593723 95.80078071a24.18750027 24.18750027 0 0 1-34.24218723-0.07031223 24.890625 24.890625 0 0 1-0.35156277-34.76953098l95.94140598-100.12500027a225.98437473 225.98437473 0 0 1 21.09375-299.28515598L305.98437473 394.0859375l68.66015625 68.66015625L427.13281277 411.10156277a24.39843777 24.39843777 0 0 1 34.34765598 34.59375L409.94140652 497.234375l117.9140625 117.63281277 56.53125-57.5859375a20.28515652 20.28515652 0 0 1 30.09374946 1.23046848z m-112.32421875 199.19531223l44.05078179-44.05078098-240.22265679-240.46875-44.296875 44.57812473a169.91015625 169.91015625 0 0 0-4.67578071 240.18750027l4.640625 4.92187473a151.875 151.875 0 0 0 117.9140625 48.97265652 175.35937473 175.35937473 0 0 0 122.58984321-54.70312473v0.56249946zM933.875 512c0 232.98046875-188.89453125 421.875-421.875 421.875-7.87499973 0-15.71484375-0.2109375-23.48437473-0.6328125l73.12499946-73.16015598a351.77343777 351.77343777 0 0 0 298.44140679-298.40625027l73.12499946-73.16015598c0.45703152 7.76953098 0.66796902 15.609375 0.66796902 23.48437473zM535.48437473 90.7578125L462.35937527 163.953125a351.77343777 351.77343777 0 0 0-298.44140679 298.40625027l-73.12499946 73.16015598A428.625 428.625 0 0 1 90.125 512C90.125 279.01953125 279.01953125 90.125 512 90.125c7.87499973 0 15.71484375 0.2109375 23.48437473 0.6328125z" fill="#6C707E" p-id="1170"></path></svg>