<svg t="1751694328543" class="icon" viewBox="0 0 1024 1024" version="1.1" xmlns="http://www.w3.org/2000/svg" p-id="1612" width="16" height="16"><path d="M889.5623525 160.37019636v579.50117625H134.4376475V160.31372511h755.124705z m-755.124705-56.47058813a56.47058813 56.47058813 0 0 0-56.47058906 56.47058813v579.50117625a56.47058813 56.47058813 0 0 0 56.47058906 56.47058812h755.124705a56.47058813 56.47058813 0 0 0 56.47058906-56.47058812V160.31372511a56.47058813 56.47058813 0 0 0-56.47058906-56.47058813H134.4376475zM733.53411781 915.26901917H290.46588219v-56.47058813h443.06823562v56.47058813z" p-id="1613" fill="#CED0D6"></path><path d="M672.65882375 589.60313698v-278.96470593h43.87764656v241.46823562h118.08v37.49647031h-161.95764656zM445.70352969 589.60313698v-278.96470593h164.66823469v37.10117718H489.6376475v77.59058813h102.21176438V462.43137261h-102.21176438v89.67529406h124.85647031v37.49647031H445.70352969zM270.7576475 589.60313698V347.73960823H189.38352969v-37.10117719h207.81176437v37.10117719H315.36941187v241.86352875h-44.66823562z" p-id="1614" fill="#CED0D6"></path></svg>