<svg t="1747212455289" class="icon" viewBox="0 0 1024 1024" version="1.1" xmlns="http://www.w3.org/2000/svg" p-id="1320" width="16" height="16"><path d="M769.13777813 516.55111147c-13.65333333-18.2044448-29.58222187-25.03111147-54.61333333-31.85777814-6.82666667-2.2755552-29.58222187-2.2755552-34.13333333-2.2755552 0 0-6.82666667 2.2755552-11.37777814 4.5511104-6.82666667 2.2755552-11.37777813 4.55111147-18.2044448 6.82666667-9.10222187 4.55111147-27.30666667 18.2044448-29.58222186 20.48-2.2755552 2.2755552-4.55111147 6.82666667-9.10222187 9.10222293-9.10222187 6.82666667-63.7155552 61.44-79.6444448 75.09333334l-40.96 40.96c-18.2044448 18.2044448-31.85777813 31.85777813-31.85777813 34.13333333 0 2.2755552 207.0755552 2.2755552 232.10666666 0 9.10222187 0 18.2044448-2.2755552 27.30666667-2.27555627 18.2044448-4.55111147 36.40888853-15.92888853 50.06222293-34.13333333 6.82666667-9.10222187 11.37777813-18.2044448 15.92888854-31.85777707 2.2755552-9.10222187 4.55111147-13.65333333 2.2755552-29.58222293 2.2755552-25.03111147-4.55111147-40.96-18.20444374-59.16444373zM853.33333333 79.6444448H170.66666667C120.6044448 79.6444448 79.6444448 120.6044448 79.6444448 170.66666667v682.66666666c0 50.06222187 40.96 91.02222187 91.02222187 91.02222187h682.66666666c50.06222187 0 91.02222187-40.96 91.02222187-91.02222187V170.66666667c0-50.06222187-40.96-91.02222187-91.02222187-91.02222187z m-56.88888853 618.9511104c-11.37777813 9.10222187-25.03111147 18.2044448-31.85777813 20.48-2.2755552 0-4.55111147 2.2755552-6.82666667 2.27555627-2.2755552 2.2755552-25.03111147 6.82666667-38.6844448 11.37777706-11.37777813 2.2755552-29.58222187 2.2755552-207.0755552 2.27555627-211.62666667 0-202.5244448 0-229.83111147-6.82666667-22.7555552-6.82666667-45.51111147-20.48-63.7155552-38.6844448-31.85777813-29.58222187-45.51111147-68.26666667-45.51111146-111.50222186 0-15.92888853 2.2755552-31.85777813 6.82666666-47.78666667 6.82666667-18.2044448 9.10222187-25.03111147 29.58222294-52.33777813 4.55111147-4.55111147 25.03111147-22.7555552 31.85777706-29.58222187 11.37777813-6.82666667 47.78666667-22.7555552 54.61333334-22.75555627 4.55111147 0 6.82666667-4.55111147 9.10222293-11.37777706 6.82666667-22.7555552 9.10222187-27.30666667 13.65333333-43.23555627 11.37777813-27.30666667 31.85777813-54.61333333 56.88888854-75.09333333 4.55111147-4.55111147 9.10222187-6.82666667 13.65333333-11.37777707 2.2755552-2.2755552 4.55111147-2.2755552 6.82666667-4.55111147 18.2044448-13.65333333 56.88888853-29.58222187 84.1955552-31.85777813 29.58222187-4.55111147 63.7155552-2.2755552 86.47111146 6.82666667 18.2044448 4.55111147 22.7555552 6.82666667 25.03111147 9.10222293 4.55111147 2.2755552 11.37777813 4.55111147 15.92888853 6.82666667 20.48 9.10222187 45.51111147 29.58222187 59.1644448 45.5111104 11.37777813 13.65333333 25.03111147 29.58222187 27.30666667 36.4088896 0 2.2755552 2.2755552 4.55111147 4.5511104 6.82666666 2.2755552 2.2755552 4.55111147 6.82666667 4.55111147 11.37777707 0 2.2755552 2.2755552 6.82666667 4.55111146 11.37777813 4.55111147 9.10222187 4.55111147 9.10222187-20.48 11.37777814-11.37777813 0-25.03111147 2.2755552-29.58222293 2.2755552-2.2755552 0-6.82666667 2.2755552-9.10222187 2.2755552 0 0-4.55111147-4.55111147-6.82666666-11.37777707-6.82666667-13.65333333-20.48-27.30666667-31.85777814-38.6844448-18.2044448-15.92888853-36.40888853-25.03111147-63.7155552-31.85777813-13.65333333-9.10222187-18.2044448-9.10222187-34.13333333-9.10222187-13.65333333 0-22.7555552 0-29.58222187 2.2755552-4.55111147 2.2755552-11.37777813 2.2755552-13.65333333 4.55111147-18.2044448 4.55111147-40.96 18.2044448-56.8888896 31.85777813-15.92888853 15.92888853-27.30666667 29.58222187-34.13333333 45.5111104-4.55111147 6.82666667-13.65333333 31.85777813-11.37777707 34.13333333 0 0 6.82666667 4.55111147 13.65333333 6.82666667 15.92888853 4.55111147 29.58222187 13.65333333 43.2355552 22.75555627 13.65333333 9.10222187 36.40888853 29.58222187 38.6844448 31.85777706 4.55111147 4.55111147 11.37777813 9.10222187 15.92888854 13.65333334 6.82666667 6.82666667 13.65333333 11.37777813 13.65333333 13.65333333 0 0-6.82666667 9.10222187-15.92888853 18.2044448-20.48 18.2044448-25.03111147 22.7555552-27.30666667 22.7555552 0 0-4.55111147-4.55111147-11.37777813-6.82666667-4.55111147-4.55111147-11.37777813-11.37777813-15.92888854-13.65333333-4.55111147-2.2755552-11.37777813-9.10222187-15.9288896-13.65333333-25.03111147-22.7555552-52.33777813-36.40888853-77.36888853-36.40888854-20.48 0-47.78666667 9.10222187-61.44 22.7555552-13.65333333 11.37777813-27.30666667 31.85777813-31.85777813 50.06222294-2.2755552 11.37777813-2.2755552 36.40888853 0 47.78666666 9.10222187 36.40888853 38.6844448 61.44 75.09333333 68.26666667 11.37777813 2.2755552 22.7555552 2.2755552 34.13333333 2.2755552h22.75555627l11.37777707-11.37777813 25.03111146-25.0311104c43.2355552-40.96 86.47111147-81.92 127.43111147-122.88 20.48-20.48 54.61333333-52.33777813 72.81777707-65.99111147 9.10222187-6.82666667 25.03111147-15.92888853 34.13333333-18.2044448 4.55111147-2.2755552 9.10222187-4.55111147 13.65333333-4.5511104 11.37777813-4.55111147 27.30666667-6.82666667 52.33777814-4.55111147 9.10222187 0 15.92888853 0 25.03111146 2.2755552 6.82666667 2.2755552 31.85777813 11.37777813 34.13333334 11.37777814 2.2755552 2.2755552 4.55111147 2.2755552 6.82666666 2.2755552 6.82666667 2.2755552 15.92888853 9.10222187 29.58222187 20.48 13.65333333 11.37777813 20.48 18.2044448 25.03111147 27.30666666 2.2755552 2.2755552 4.55111147 6.82666667 6.82666666 9.10222294 2.2755552 2.2755552 13.65333333 25.03111147 13.65333334 27.30666666 0 2.2755552 0 4.55111147 2.2755552 6.82666667 4.55111147 6.82666667 9.10222187 38.6844448 9.10222186 50.06222187-2.2755552 43.2355552-25.03111147 88.74666667-59.16444373 118.32888853z" p-id="1321" fill="#6C707E"></path></svg>