<svg t="1750821074847" class="icon" viewBox="0 0 1024 1024" version="1.1" xmlns="http://www.w3.org/2000/svg" p-id="3059" width="16" height="16"><path d="M962 511.54954912c0 248.64864873-201.80180214 449.54954912-449.54954912 449.54955S62 760.19819785 62 511.54954912 263.80180215 62 511.54954912 62c248.64864873 0 450.45045088 201.80180214 450.45045088 449.54954912z" fill="#DD4814" p-id="3060"></path><path d="M206.14414414 452.09009023a60.36036065 60.36036065 0 1 0 60.36036065 60.36036065c0-33.33333339-27.02702724-60.36036065-60.36036065-60.36036065z m428.82882891 272.97297247c-28.82882901 16.21621583-38.73873867 53.15315273-21.62162198 81.98198261 16.21621583 28.82882901 53.15315273 38.73873867 81.98198262 21.6216211 28.82882901-16.21621583 38.73873867-53.15315273 21.6216211-81.98198174-17.1171167-28.82882901-53.15315273-38.73873867-81.98198174-21.62162198zM336.7747751 511.54954912c0-56.75675713 27.92792813-110.81081075 74.77477471-143.24324238l-44.14414483-72.97297383c-53.15315273 35.13513516-91.89189229 89.18918877-108.10810811 151.35135205 36.03603604 29.72972988 41.44144131 82.88288261 12.61261319 118.91891866-3.60360352 4.5045044-8.10810791 8.10810791-12.61261319 12.6126123 16.21621583 62.1621624 54.95495537 116.21621602 108.10810811 151.35135205l44.14414483-73.87387471c-46.84684658-33.33333339-74.77477471-86.48648613-74.77477471-144.14414414z m174.77477402-174.77477402c90.99099141 0 166.66666699 69.36936943 174.7747749 160.36035996l85.58558614-0.90090088c-4.5045044-63.96396416-31.53153164-124.32432393-77.47747735-169.36936963-43.24324307 16.21621583-91.89189229-5.40540528-109.00900898-48.64864833-1.80180176-5.40540528-3.60360352-10.81081055-4.50450528-16.21621583-62.1621624-17.1171167-127.92792832-10.81081055-185.58558545 18.01801758l41.44144131 74.77477471c24.32432461-12.61261231 49.54954922-18.01801846 74.77477471-18.01801758z m0 350.4504498c-25.22522549 0-50.4504501-5.40540528-73.87387383-16.21621582l-41.44144131 74.77477471c57.65765801 28.82882901 123.42342305 35.13513516 185.58558545 18.01801758 7.20720703-45.9459457 50.4504501-77.47747734 96.39639669-69.36936856 5.40540528 0.90090088 10.81081055 2.70270263 16.21621669 4.5045044 45.9459457-45.04504482 72.97297295-105.40540547 77.47747735-169.36936963l-85.58558614-0.90090088c-8.10810791 89.18918877-83.78378349 158.5585582-174.7747749 158.5585582z m123.42342393-388.28828759c28.82882901 16.21621583 65.76576592 6.30630615 81.98198174-21.62162198 16.21621583-28.82882901 6.30630615-65.76576592-21.6216211-81.98198174-29.72972988-17.1171167-65.76576592-7.20720703-82.8828835 21.6216211-16.21621583 28.82882901-6.30630615 65.76576592 22.52252286 81.98198262z" fill="#FFFFFF" p-id="3061"></path></svg>