<svg t="1747212946112" class="icon" viewBox="0 0 1024 1024" version="1.1" xmlns="http://www.w3.org/2000/svg" p-id="1350" width="16" height="16"><path d="M853.33333333 79.6444448H170.66666667C120.6044448 79.6444448 79.6444448 120.6044448 79.6444448 170.66666667v682.66666666c0 50.06222187 40.96 91.02222187 91.02222187 91.02222187h682.66666666c50.06222187 0 91.02222187-40.96 91.02222187-91.02222187V170.66666667c0-50.06222187-40.96-91.02222187-91.02222187-91.02222187zM298.09777813 700.87111147c-56.88888853 0-104.6755552-45.51111147-104.67555626-102.4v-175.21777814c0-56.88888853 45.51111147-102.4 104.67555626-102.4v-2.2755552H466.48888853l-13.65333333 59.16444374-145.6355552 31.85777813c-13.65333333 4.55111147-22.7555552 13.65333333-22.7555552 27.30666667v147.91111146c0 13.65333333 11.37777813 25.03111147 22.7555552 27.30666667l143.36 29.58222187 13.65333333 59.1644448h-166.1155552z m273.06666667-202.5244448v29.58222186h-116.05333333v-29.58222186h116.05333333zM830.57777813 600.74666667c0 56.88888853-45.51111147 102.4-104.67555626 102.4H557.51111147l13.65333333-59.1644448 143.36-29.58222187c13.65333333-4.55111147 22.7555552-13.65333333 22.7555552-27.30666667v-147.91111146c0-13.65333333-11.37777813-25.03111147-22.7555552-27.30666667l-143.36-29.58222187-13.65333333-59.1644448h166.1155552c56.88888853 0 104.6755552 45.51111147 104.6755552 102.4v175.21777814z" p-id="1351" fill="#6C707E"></path></svg>